<svg xmlns="http://www.w3.org/2000/svg" width="24.213" height="24.603" viewBox="0 0 24.213 24.603">
  <path id="Icon_awesome-power-off" data-name="Icon awesome-power-off" d="M19.7,2.641a12.1,12.1,0,1,1-14.069,0,1.175,1.175,0,0,1,1.709.376l.771,1.372a1.171,1.171,0,0,1-.322,1.513,8.2,8.2,0,1,0,9.758,0,1.165,1.165,0,0,1-.317-1.508L18,3.022a1.17,1.17,0,0,1,1.7-.381ZM14.621,12.887V1.172A1.169,1.169,0,0,0,13.45,0H11.888a1.169,1.169,0,0,0-1.172,1.172V12.887a1.169,1.169,0,0,0,1.172,1.172H13.45A1.169,1.169,0,0,0,14.621,12.887Z" transform="translate(-0.563)" fill="#fff"/>
</svg>
